<!--?xml version="1.0" standalone="no"?-->
              <svg id="sw-js-blob-svg" viewBox="0 0 100 100" xmlns="http://www.w3.org/2000/svg" version="1.1">
                    <defs> 
                        <linearGradient id="sw-gradient" x1="0" x2="1" y1="1" y2="0">
                            <stop id="stop1" stop-color="rgba(55, 248, 107.745, 1)" offset="0%"></stop>
                            <stop id="stop2" stop-color="rgba(4.974, 214.843, 33.178, 1)" offset="100%"></stop>
                        </linearGradient>
                    </defs>
                <path fill="none" d="M1.7,-3.7C2,-1.9,1.6,-1.1,5.8,2C9.9,5,18.4,10.3,18.5,11.1C18.5,11.8,10.1,8.1,4.4,8.8C-1.4,9.5,-4.3,14.7,-7.5,15.7C-10.7,16.7,-14.2,13.4,-13.8,10C-13.3,6.5,-9,2.9,-8.1,-1.3C-7.2,-5.5,-9.8,-10.1,-9,-11.9C-8.3,-13.6,-4.1,-12.5,-1.7,-10.5C0.8,-8.5,1.5,-5.6,1.7,-3.7Z" width="100%" height="100%" transform="translate(50 50)" stroke-width="1" style="transition: 0.3s;" stroke="url(#sw-gradient)"></path>
              </svg>